<svg width="279" height="320" viewBox="0 0 279 320" fill="none" xmlns="http://www.w3.org/2000/svg">
<path d="M237.322 64.1391C220.09 52.9008 207.656 34.9133 203.776 13.9579C202.938 9.43149 202.473 4.76852 202.473 0H147.474L147.381 220.476C146.462 245.169 126.144 264.982 101.24 264.982C93.4987 264.982 86.211 263.051 79.7923 259.667C65.0741 251.924 54.9992 236.495 54.9992 218.743C54.9992 193.243 75.745 172.493 101.233 172.493C105.995 172.493 110.557 173.281 114.871 174.628V118.468C110.402 117.853 105.864 117.481 101.233 117.481C45.4147 117.481 0 162.9 0 218.743C0 252.999 17.1081 283.317 43.2234 301.646C59.6611 313.201 79.6682 320 101.24 320C157.064 320 202.473 274.575 202.473 218.743V106.938C224.044 122.423 250.476 131.55 279 131.55V76.5323C263.636 76.5323 249.328 71.9686 237.322 64.1391Z" fill="white"/>
</svg>
