<svg width="255" height="256" viewBox="0 0 255 256" fill="none" xmlns="http://www.w3.org/2000/svg">
<path fill-rule="evenodd" clip-rule="evenodd" d="M217.844 37.2007C193.877 13.2236 162 0.0124888 128.036 0C58.049 0 1.09 56.902 1.0655 126.844C1.0535 149.203 6.904 171.027 18.0145 190.26L0 256L67.3085 238.36C85.852 248.47 106.734 253.792 127.981 253.798H128.036C198.01 253.798 254.975 196.89 254.999 126.948C255.011 93.0506 241.819 61.1842 217.844 37.2066V37.2007ZM128.036 232.376H127.993C109.059 232.37 90.485 227.284 74.279 217.68L70.4255 215.394L30.4825 225.861L41.1425 186.951L38.634 182.961C28.0715 166.174 22.489 146.77 22.501 126.851C22.5255 68.7199 69.8655 21.4223 128.079 21.4223C156.265 21.4348 182.761 32.4139 202.686 52.3461C222.612 72.2722 233.576 98.768 233.564 126.936C233.539 185.072 186.2 232.37 128.036 232.37V232.376ZM185.919 153.413C182.747 151.825 167.151 144.161 164.24 143.103C161.33 142.044 159.218 141.516 157.105 144.69C154.993 147.866 148.912 155.007 147.061 157.117C145.21 159.234 143.359 159.496 140.187 157.907C137.015 156.32 126.794 152.975 114.673 142.178C105.243 133.772 98.874 123.396 97.024 120.22C95.173 117.046 96.829 115.33 98.4115 113.755C99.836 112.332 101.584 110.051 103.173 108.201C104.762 106.352 105.285 105.027 106.344 102.916C107.404 100.799 106.874 98.9508 106.083 97.3622C105.291 95.7751 98.9475 80.1731 96.299 73.8293C93.7235 67.6499 91.1065 68.4891 89.1645 68.3857C87.313 68.2943 85.201 68.2763 83.0825 68.2763C80.964 68.2763 77.53 69.0666 74.62 72.2422C71.71 75.4164 63.5155 83.087 63.5155 98.682C63.5155 114.278 74.882 129.357 76.471 131.474C78.0595 133.59 98.8435 165.602 130.665 179.337C138.233 182.603 144.144 184.555 148.753 186.015C156.351 188.43 163.267 188.089 168.733 187.274C174.828 186.362 187.503 179.604 190.145 172.201C192.787 164.799 192.786 158.449 191.995 157.129C191.204 155.809 189.086 155.012 185.914 153.425L185.919 153.413Z" fill="white"/>
</svg>
